<svg xmlns="http://www.w3.org/2000/svg" viewBox="0 0 600 400">
  <rect width="600" height="400" fill="#f00"/>
  <rect width="240" height="400" fill="#060"/>
  <g fill="#ff0" fill-rule="evenodd" stroke="#000" stroke-width="0.573" stroke-linecap="round" stroke-linejoin="round">
    <path d="M318.76 219.7a99.92 99.92 0 1 1-199.83 0 99.92 99.92 0 1 1 199.83 0z" stroke-width="1.064"/>
    <path d="M142.73 170.06c-3.45 79.83 75.38 79.85 78.02-1.2-45.95-15.8-43.4-18.93-78.01 1.2z"/>
    <path d="M170.76 177.1c.4 43.55 35.44 45.95 41.28-.95-8.4-7.3-24.9-7.67-41.28.95z" fill="#fff"/>
    <path d="M173.58 184.08c-3.96 31.62 28.55 31.63 29.5-.46-17.4-5.98-16.4-7.16-29.5.46z"/>
    <path d="M210.42 188.06c.15 7.13-5.75 7.64-7.25 8.97-2.4 1.94-4.73 4.6-10.74 3.63.6 2.82 2.07 4.77 4.86 5.64-.93 1.5-4.6 2.54-9.44 2-1.76-4.6-3.25-6.86-6.87-9.08 4.66-1.4 6.28-3.47 6.97-5.74-2.8-1.78-9.25-8.95-9.1-13.7 4.66 3.23 7.57 4.7 13.78 1.92 3.03 5.7 11.58 4.13 12.08.4-4.48-.56-3.95-2.13-2.04-6.03h3.5l-4.15 5.22c2.62.6 5.95 3.46 8.4 6.77z"/>
    <path d="M218.9 209.1c-4.3-8.2-7.64-23.1-39.53-22.4-38.22 4.9-40.7 24.67-39.23 37.3 2.14 20.08 17.47 31.4 36.7 36.67.42-5.94 3.38-8.17 4.65-8.5 4.9-1.03 8.07-2.98 10.93-6.1 13.44 11.38 1.7 21.97-12.68 22.17 22.6 28.3 111.8-8.9 62.4-65.08.02-8.4-17.66-2.6-23.26 5.94z"/>
    <path d="M201.04 209.07c-3.02 9.12-24.53 15.68-24.35-2.97 7.53 10.97 18.52 9.9 24.36 2.96z"/>
    <path d="M299.97 223.13a81.61 81.61 0 1 1-163.22 0 81.61 81.61 0 1 1 163.22 0z" stroke-width=".869" transform="matrix(1.2269 0 0 1.2269 -40.54 -54.47)"/>
  </g>
</svg> 